<?xml version="1.0" encoding="UTF-8"?>
<svg version="1.1" xmlns="http://www.w3.org/2000/svg" width="1200" height="1200">
<path d="M0 0 C15.31041579 11.56443302 26.52529737 27.35967137 29.95849609 46.54492188 C32.78288052 67.65592009 28.50463823 87.98167671 15.44335938 105.08007812 C3.31427208 119.19224813 -12.94341987 129.63545243 -31.74414062 131.76757812 C-39.94244781 132.2981119 -48.71604315 132.77869012 -56.74414062 130.76757812 C-56.43476563 131.61320313 -56.12539063 132.45882812 -55.80664062 133.33007812 C-53.50693586 140.77029943 -53.63016486 148.0552181 -53.74414062 155.76757812 C-52.88175781 155.72117187 -52.019375 155.67476562 -51.13085938 155.62695312 C-23.81820278 154.81939834 3.76674603 165.90700235 24.25585938 183.76757812 C25.12210937 184.51265625 25.98835938 185.25773438 26.88085938 186.02539062 C30.80937911 189.47453741 34.19423321 192.57954277 37.06835938 196.95507812 C38.36222947 198.74082182 38.36222947 198.74082182 40.25585938 199.76757812 C43.61168342 199.74929026 46.60903883 199.16957538 49.88867188 198.46679688 C62.75238334 195.79556213 77.15060438 198.45075958 88.44335938 205.04492188 C95.45988674 209.84220668 100.114432 216.55157974 102.25585938 224.76757812 C102.57018019 228.88058857 102.58068771 232.987705 102.59960938 237.11132812 C102.61423218 238.31261353 102.62885498 239.51389893 102.6439209 240.75158691 C102.69033135 244.59021676 102.72454402 248.4287973 102.75585938 252.26757812 C102.79736229 257.299009 102.85125381 262.33009825 102.91210938 267.36132812 C102.92002502 269.0621051 102.92002502 269.0621051 102.92810059 270.79724121 C103.02716491 278.92616791 103.97473561 286.74687631 105.25585938 294.76757812 C105.58585937 297.07757812 105.91585938 299.38757813 106.25585938 301.76757812 C97.34585937 301.76757812 88.43585938 301.76757812 79.25585938 301.76757812 C78.26585937 299.45757813 77.27585937 297.14757812 76.25585938 294.76757812 C75.64097656 295.18910156 75.02609375 295.610625 74.39257812 296.04492188 C73.18021484 296.86669922 73.18021484 296.86669922 71.94335938 297.70507812 C71.14285156 298.25035156 70.34234375 298.795625 69.51757812 299.35742188 C67.25585937 300.76757812 67.25585937 300.76757812 64.25585938 301.76757812 C63.44357063 303.46127276 63.44357063 303.46127276 63.00195312 305.57226562 C62.79272217 306.3740625 62.58349121 307.17585938 62.36791992 308.00195312 C62.03401245 309.3090625 62.03401245 309.3090625 61.69335938 310.64257812 C57.32208412 326.34579405 49.72246641 340.28174956 39.25585938 352.76757812 C38.53785156 353.63640625 37.81984375 354.50523437 37.08007812 355.40039062 C31.71966805 361.62722578 25.78301918 366.79539077 19.25585938 371.76757812 C18.46566406 372.3734375 17.67546875 372.97929688 16.86132812 373.60351562 C4.39059184 382.74458601 -8.96280298 388.53698636 -23.74414062 392.76757812 C-25.43796875 393.27998047 -25.43796875 393.27998047 -27.16601562 393.80273438 C-46.49991737 398.68159456 -68.70361777 397.25754573 -87.74414062 391.76757812 C-88.783125 391.50203125 -89.82210937 391.23648437 -90.89257812 390.96289062 C-120.39199575 382.47675679 -144.98301201 359.89036815 -159.72753906 333.61962891 C-163.86617458 326.07983808 -167.02346406 318.42659398 -169.49414062 310.20507812 C-169.69297852 309.54523926 -169.89181641 308.88540039 -170.09667969 308.20556641 C-173.15648263 297.4332756 -174.04747625 286.93657054 -173.93164062 275.76757812 C-173.93067383 273.99640625 -173.93067383 273.99640625 -173.9296875 272.18945312 C-173.89242778 264.67126952 -173.48828491 257.24841186 -172.74414062 249.76757812 C-173.65292969 249.49945312 -174.56171875 249.23132813 -175.49804688 248.95507812 C-201.65383297 240.79983815 -222.17687769 224.86684033 -235.74414062 200.76757812 C-238.22310078 195.93398642 -240.08628082 190.92871606 -241.74414062 185.76757812 C-242.05738281 184.83002686 -242.05738281 184.83002686 -242.37695312 183.87353516 C-249.71553122 161.10884788 -247.31916806 135.08638344 -236.74414062 113.76757812 C-224.93580242 90.82418416 -206.23004777 72.37420744 -181.27929688 64.25195312 C-159.63133061 57.61345936 -134.88810185 56.70588046 -113.74414062 65.76757812 C-113.79054687 64.71441406 -113.83695313 63.66125 -113.88476562 62.57617188 C-114.49675945 42.65030448 -108.56022774 24.56499479 -94.74414062 9.76757812 C-69.87358646 -15.3777888 -29.4737722 -20.82637207 0 0 Z M52.25585938 218.76757812 C53.37899268 221.51835382 54.50428915 224.26821032 55.63085938 227.01757812 C55.94796875 227.79488281 56.26507813 228.5721875 56.59179688 229.37304688 C57.05585938 230.50419922 57.05585938 230.50419922 57.52929688 231.65820312 C57.953479 232.69509277 57.953479 232.69509277 58.38623047 233.75292969 C59.26658148 235.79241777 60.26242799 237.78071536 61.25585938 239.76757812 C66.20585937 239.76757812 71.15585937 239.76757812 76.25585938 239.76757812 C76.10117187 236.95226562 76.10117187 236.95226562 75.94335938 234.08007812 C75.88535156 233.02433594 75.82734375 231.96859375 75.76757812 230.88085938 C75.10206036 226.83186962 73.80141229 224.06733226 70.63476562 221.40429688 C64.58400694 218.2422875 58.97427086 218.36447344 52.25585938 218.76757812 Z M65.25585938 255.76757812 C65.58585937 264.01757812 65.91585938 272.26757812 66.25585938 280.76757812 C73.04455939 277.3893753 73.04455939 277.3893753 76.25585938 271.76757812 C76.46570712 268.91085077 76.54235761 266.2955659 76.44335938 263.45507812 C76.42982422 262.71451172 76.41628906 261.97394531 76.40234375 261.2109375 C76.36721917 259.39616738 76.3134191 257.58177525 76.25585938 255.76757812 C72.62585938 255.76757812 68.99585938 255.76757812 65.25585938 255.76757812 Z " fill="#3F4896" transform="translate(353.744140625,408.232421875)"/>
<path d="M0 0 C28.25553669 -1.52047731 56.76758199 9.49147772 78 28 C78.86625 28.74507812 79.7325 29.49015625 80.625 30.2578125 C84.55351973 33.70695929 87.93837384 36.81196464 90.8125 41.1875 C92.1063701 42.97324369 92.1063701 42.97324369 94 44 C97.35582405 43.98171213 100.35317946 43.40199726 103.6328125 42.69921875 C116.49652396 40.027984 130.894745 42.68318146 142.1875 49.27734375 C149.20402736 54.07462856 153.85857262 60.78400162 156 69 C156.31432081 73.11301044 156.32482833 77.22012688 156.34375 81.34375 C156.3583728 82.5450354 156.37299561 83.7463208 156.38806152 84.98400879 C156.43447198 88.82263864 156.46868464 92.66121917 156.5 96.5 C156.54150292 101.53143087 156.59539443 106.56252012 156.65625 111.59375 C156.66416565 113.29452698 156.66416565 113.29452698 156.67224121 115.02966309 C156.77130553 123.15858978 157.71887623 130.97929819 159 139 C159.33 141.31 159.66 143.62 160 146 C151.09 146 142.18 146 133 146 C132.01 143.69 131.02 141.38 130 139 C129.38511719 139.42152344 128.77023437 139.84304688 128.13671875 140.27734375 C127.32847656 140.82519531 126.52023437 141.37304688 125.6875 141.9375 C124.88699219 142.48277344 124.08648437 143.02804687 123.26171875 143.58984375 C121 145 121 145 118 146 C117.18771126 147.69369463 117.18771126 147.69369463 116.74609375 149.8046875 C116.43224731 151.00738281 116.43224731 151.00738281 116.11206055 152.234375 C115.88945557 153.10578125 115.66685059 153.9771875 115.4375 154.875 C111.06622474 170.57821593 103.46660703 184.51417143 93 197 C92.28199219 197.86882812 91.56398438 198.73765625 90.82421875 199.6328125 C85.46380867 205.85964765 79.5271598 211.02781265 73 216 C71.81470703 216.90878906 71.81470703 216.90878906 70.60546875 217.8359375 C58.13473246 226.97700788 44.78133764 232.76940824 30 237 C28.87078125 237.34160156 27.7415625 237.68320312 26.578125 238.03515625 C7.24422326 242.91401643 -14.95947715 241.4899676 -34 236 C-35.03898437 235.73445312 -36.07796875 235.46890625 -37.1484375 235.1953125 C-66.64785513 226.70917866 -91.23887138 204.12279003 -105.98339844 177.85205078 C-110.12203395 170.31225995 -113.27932343 162.65901586 -115.75 154.4375 C-115.94883789 153.77766113 -116.14767578 153.11782227 -116.35253906 152.43798828 C-119.40172364 141.70308032 -120.32318892 131.19331564 -120.25 120.0625 C-120.25773438 118.89009766 -120.26546875 117.71769531 -120.2734375 116.50976562 C-120.25576135 108.50688697 -119.43614875 100.87019327 -118 93 C-117.30511475 93.15388184 -116.61022949 93.30776367 -115.89428711 93.46630859 C-90.07842654 98.93519814 -67.00306011 92.50153006 -44 81 C-44 102.45 -44 123.9 -44 146 C-35.42 146 -26.84 146 -18 146 C-18 129.5 -18 113 -18 96 C-14.205 95.896875 -10.41 95.79375 -6.5 95.6875 C10.45299351 95.06111727 26.64771653 93.7129078 40 82 C48.86481444 72.03529192 51.24339856 60.83731245 50.58203125 47.859375 C49.62087564 37.52341111 44.9213094 27.8168131 37 21 C34.71809628 19.42172398 32.49999165 18.24999582 30 17 C28.89785156 16.27103516 28.89785156 16.27103516 27.7734375 15.52734375 C24.39290529 13.66567038 20.97578244 12.75299483 17.25 11.875 C16.54423828 11.70323242 15.83847656 11.53146484 15.11132812 11.35449219 C10.08550272 10.16610831 5.15799468 9.36842819 0 9 C-1.15941038 5.52176885 -0.70820884 3.54104422 0 0 Z M106 63 C107.12313331 65.75077569 108.24842978 68.5006322 109.375 71.25 C109.69210937 72.02730469 110.00921875 72.80460938 110.3359375 73.60546875 C110.8 74.73662109 110.8 74.73662109 111.2734375 75.890625 C111.69761963 76.92751465 111.69761963 76.92751465 112.13037109 77.98535156 C113.01072211 80.02483965 114.00656862 82.01313724 115 84 C119.95 84 124.9 84 130 84 C129.8453125 81.1846875 129.8453125 81.1846875 129.6875 78.3125 C129.62949219 77.25675781 129.57148438 76.20101562 129.51171875 75.11328125 C128.84620099 71.06429149 127.54555292 68.29975414 124.37890625 65.63671875 C118.32814756 62.47470937 112.71841149 62.59689531 106 63 Z M119 100 C119.33 108.25 119.66 116.5 120 125 C126.78870001 121.62179717 126.78870001 121.62179717 130 116 C130.20984775 113.14327264 130.28649823 110.52798778 130.1875 107.6875 C130.17396484 106.94693359 130.16042969 106.20636719 130.14648438 105.44335938 C130.11135979 103.62858925 130.05755972 101.81419712 130 100 C126.37 100 122.74 100 119 100 Z " fill="#C0E9F1" transform="translate(300,564)"/>
<path d="M0 0 C15.31041579 11.56443302 26.52529737 27.35967137 29.95849609 46.54492188 C32.78288052 67.65592009 28.50463823 87.98167671 15.44335938 105.08007812 C2.57621251 120.05097904 -14.27383994 130.05856633 -34.10009766 131.99804688 C-53.48023069 133.38261681 -71.17388023 128.62420292 -86.54882812 116.56835938 C-89.05273619 114.38790448 -91.40913869 112.12707309 -93.74414062 109.76757812 C-94.44023437 109.105 -95.13632812 108.44242188 -95.85351562 107.75976562 C-108.64340871 94.72200639 -114.0123316 76.02601552 -114.24414062 58.14257812 C-114.01214908 38.834643 -106.16091182 21.31050149 -92.62304688 7.62304688 C-67.56024442 -15.74209695 -28.52663764 -20.15712021 0 0 Z " fill="#181AA7" transform="translate(353.744140625,408.232421875)"/>
<path d="M0 0 C65.54959786 0 65.54959786 0 78 9 C79.15242188 9.82951172 79.15242188 9.82951172 80.328125 10.67578125 C86.68548389 15.75956328 89.87507815 21.57190707 93 29 C93.37511719 29.74507812 93.75023437 30.49015625 94.13671875 31.2578125 C95.43467464 35.38073122 95.3829419 39.38854835 95.375 43.6875 C95.37338867 44.58291504 95.37177734 45.47833008 95.37011719 46.40087891 C95.19539138 55.80695162 92.6244566 62.44213644 87 70 C86.401875 70.845625 85.80375 71.69125 85.1875 72.5625 C76.19561765 82.58202604 63.79545728 84.86742379 51 87 C42.75 87 34.5 87 26 87 C26 103.5 26 120 26 137 C17.42 137 8.84 137 0 137 C0 91.79 0 46.58 0 0 Z " fill="#000101" transform="translate(256,573)"/>
<path d="M0 0 C8.91 0 17.82 0 27 0 C27 47.52 27 95.04 27 144 C18.75 144 10.5 144 2 144 C1.34 141.36 0.68 138.72 0 136 C-0.94875 136.9075 -1.8975 137.815 -2.875 138.75 C-10.79130337 145.39151098 -19.03297643 146.82457281 -29.15625 146.3828125 C-38.48782712 145.45344811 -46.43350894 141.09502011 -52.6875 134.1171875 C-64.55504605 118.98606629 -66.45302055 100.52477172 -64.81396484 81.88427734 C-63.31574687 69.5964489 -58.42290103 58.12268888 -50 49 C-47.5 47.171875 -47.5 47.171875 -45 45.75 C-44.175 45.27046875 -43.35 44.7909375 -42.5 44.296875 C-33.76553482 39.76587119 -24.53764357 38.60729906 -15 41.125 C-10 43 -10 43 -1 49 C-0.67 32.83 -0.34 16.66 0 0 Z M-30.6875 67.125 C-39.0269488 77.49296338 -38.91240758 90.31518167 -38 103 C-36.70855484 111.19286227 -34.48081644 116.73915124 -27.8046875 121.828125 C-22.90706915 125.00839666 -17.68386441 124.3953344 -12 124 C-6.59985258 122.29995359 -2.97057342 118.75414999 0 114 C0.81813405 110.84419369 0.82088704 107.84104629 0.76171875 104.59375 C0.76508743 103.71021851 0.76845612 102.82668701 0.77192688 101.91638184 C0.77162925 100.05731354 0.75649557 98.19819444 0.72729492 96.33935547 C0.68760165 93.50725302 0.70661221 90.67983661 0.73242188 87.84765625 C0.72486195 86.03383615 0.71390767 84.22002637 0.69921875 82.40625 C0.70620285 81.56751343 0.71318695 80.72877686 0.72038269 79.86462402 C0.58050898 73.98837022 -0.89666976 70.26371319 -5 66 C-13.34122275 60.18054227 -22.89175149 60.96091978 -30.6875 67.125 Z " fill="#fff" transform="translate(892,566)"/>
<path d="M0 0 C8.25 0 16.5 0 25 0 C27.64 20.46 30.28 40.92 33 62 C34.25450994 57.6092152 35.3456164 53.59420641 36.14501953 49.15649414 C36.34507599 48.0558815 36.54513245 46.95526886 36.75125122 45.82130432 C36.95966644 44.65437546 37.16808167 43.48744659 37.3828125 42.28515625 C37.71150833 40.46883949 37.71150833 40.46883949 38.04684448 38.61582947 C38.74288264 34.76531011 39.43400784 30.91392775 40.125 27.0625 C40.59693367 24.44453052 41.06998442 21.82676442 41.54296875 19.20898438 C42.69902957 12.80665383 43.85068635 6.40354505 45 0 C51.27 0 57.54 0 64 0 C69.94 31.68 69.94 31.68 76 64 C78.59243745 43.31222867 78.59243745 43.31222867 81.17553711 22.62329102 C81.50079894 20.04178652 81.82637897 17.46032208 82.15234375 14.87890625 C82.2357753 14.20391586 82.31920685 13.52892548 82.40516663 12.83348083 C82.65016272 10.85406652 82.90100569 8.87537855 83.15209961 6.89672852 C83.29199814 5.77976089 83.43189667 4.66279327 83.57603455 3.51197815 C84 1 84 1 85 0 C86.78071246 -0.08726223 88.5648314 -0.10699041 90.34765625 -0.09765625 C91.42724609 -0.09443359 92.50683594 -0.09121094 93.61914062 -0.08789062 C95.32360352 -0.07532227 95.32360352 -0.07532227 97.0625 -0.0625 C98.77276367 -0.05573242 98.77276367 -0.05573242 100.51757812 -0.04882812 C103.34510351 -0.03699747 106.1725264 -0.0205141 109 0 C108.42578031 6.51905562 107.59273364 12.92559528 106.43359375 19.36523438 C106.20169846 20.67933792 106.20169846 20.67933792 105.96511841 22.01998901 C105.45963904 24.87858471 104.94875115 27.73618141 104.4375 30.59375 C104.08236177 32.59244613 103.72746656 34.59118545 103.37280273 36.58996582 C102.63212981 40.75930376 101.88881852 44.92815999 101.14355469 49.09667969 C100.18717961 54.44702261 99.23701935 59.79844706 98.28874207 65.15023041 C97.55844365 69.26832019 96.82512414 73.3858674 96.09085083 77.50325012 C95.73910214 79.47752674 95.38824917 81.45196315 95.03829956 83.42655945 C94.55071015 86.17490049 94.05911929 88.92249543 93.56640625 91.66992188 C93.34973801 92.89792007 93.34973801 92.89792007 93.12869263 94.15072632 C92.11431497 99.77137006 92.11431497 99.77137006 91 102 C83.08 102 75.16 102 67 102 C66.64172119 100.2785376 66.28344238 98.5570752 65.91430664 96.78344727 C64.73198428 91.10703902 63.54618713 85.43136278 62.35799503 79.75618076 C61.63745695 76.3140236 60.91833348 72.87158333 60.20239258 69.4284668 C59.37997146 65.47356985 58.55148964 61.51996437 57.72265625 57.56640625 C57.46533218 56.32476212 57.20800812 55.08311798 56.94288635 53.80384827 C56.70271286 52.66274094 56.46253937 51.52163361 56.21508789 50.34594727 C56.00412979 49.335569 55.79317169 48.32519073 55.57582092 47.28419495 C55.22000126 45.04906476 55.22000126 45.04906476 54 44 C53.86441177 44.69713104 53.72882355 45.39426208 53.58912659 46.11251831 C52.31205235 52.67586903 51.03218018 59.23866714 49.74914646 65.80085564 C49.08959481 69.17471695 48.43113459 72.5487837 47.77514648 75.92333984 C47.02129239 79.80108832 46.26273089 83.67790849 45.50390625 87.5546875 C45.26845596 88.76929657 45.03300568 89.98390564 44.79042053 91.23532104 C44.57026779 92.35633209 44.35011505 93.47734314 44.12329102 94.63232422 C43.93009781 95.62271698 43.7369046 96.61310974 43.53785706 97.6335144 C43 100 43 100 42 102 C34.08 102 26.16 102 18 102 C13.4803996 77.48944842 8.97412882 52.97642742 4.53927612 28.45037842 C4.13826842 26.23443414 3.73635265 24.018654 3.33352661 21.80303955 C2.7705624 18.70508876 2.210981 15.60654605 1.65234375 12.5078125 C1.48403046 11.58504517 1.31571716 10.66227783 1.14230347 9.71154785 C0.99084869 8.86717163 0.83939392 8.02279541 0.68334961 7.15283203 C0.55061142 6.41904327 0.41787323 5.68525452 0.28111267 4.92922974 C0 3 0 3 0 0 Z " fill="#fff" transform="translate(474,608)"/>
<path d="M0 0 C6.4204139 6.24130365 9.84472451 13.43360594 10.10742188 22.36914062 C10.13545917 24.61709194 10.15374685 26.86517876 10.1640625 29.11328125 C10.1786853 30.31456665 10.19330811 31.51585205 10.20837402 32.75354004 C10.25478448 36.59216989 10.28899714 40.43075042 10.3203125 44.26953125 C10.36181542 49.30096212 10.41570693 54.33205137 10.4765625 59.36328125 C10.48447815 61.06405823 10.48447815 61.06405823 10.49255371 62.79919434 C10.59161803 70.92812103 11.53918873 78.74882944 12.8203125 86.76953125 C13.3153125 90.23453125 13.3153125 90.23453125 13.8203125 93.76953125 C4.9103125 93.76953125 -3.9996875 93.76953125 -13.1796875 93.76953125 C-14.1696875 91.45953125 -15.1596875 89.14953125 -16.1796875 86.76953125 C-16.71335937 87.16785156 -17.24703125 87.56617188 -17.796875 87.9765625 C-28.07509722 95.28512536 -38.71911495 97.33859498 -51.1796875 95.76953125 C-61.14610628 93.43466525 -68.6429559 88.71531831 -74.83984375 80.59375 C-79.29244168 73.21409604 -79.23954687 65.07176301 -78.1796875 56.76953125 C-76.97800573 53.04621018 -75.37776585 49.9933795 -73.1796875 46.76953125 C-72.5815625 45.84140625 -71.9834375 44.91328125 -71.3671875 43.95703125 C-62.37623184 34.96607559 -49.26509851 31.88140193 -36.90625 31.453125 C-35.75253906 31.41123047 -34.59882813 31.36933594 -33.41015625 31.32617188 C-32.22035156 31.28685547 -31.03054688 31.24753906 -29.8046875 31.20703125 C-28.59167969 31.16384766 -27.37867188 31.12066406 -26.12890625 31.07617188 C-23.14593718 30.97047612 -20.16289008 30.86837804 -17.1796875 30.76953125 C-17.29480903 29.03967883 -17.42224427 27.31064374 -17.5546875 25.58203125 C-17.65910156 24.13763672 -17.65910156 24.13763672 -17.765625 22.6640625 C-18.18764658 19.71389276 -18.84268278 17.42946696 -20.1796875 14.76953125 C-22.57498419 13.44471579 -22.57498419 13.44471579 -25.1796875 12.76953125 C-26.1696875 12.43953125 -27.1596875 12.10953125 -28.1796875 11.76953125 C-30.6332676 11.57211676 -33.09398069 11.45737838 -35.5546875 11.39453125 C-36.86179687 11.34554687 -38.16890625 11.2965625 -39.515625 11.24609375 C-44.10742188 11.90206473 -45.41696577 13.10264604 -48.1796875 16.76953125 C-48.8396875 18.74953125 -49.4996875 20.72953125 -50.1796875 22.76953125 C-58.7596875 22.76953125 -67.3396875 22.76953125 -76.1796875 22.76953125 C-73.81359528 8.57297792 -73.81359528 8.57297792 -68.1796875 2.76953125 C-67.40625 1.95548828 -67.40625 1.95548828 -66.6171875 1.125 C-49.69151336 -14.94625309 -17.78265944 -14.2189281 0 0 Z M-27.1796875 47.76953125 C-26.8496875 56.01953125 -26.5196875 64.26953125 -26.1796875 72.76953125 C-19.39098749 69.39132842 -19.39098749 69.39132842 -16.1796875 63.76953125 C-15.96983975 60.91280389 -15.89318927 58.29751903 -15.9921875 55.45703125 C-16.00572266 54.71646484 -16.01925781 53.97589844 -16.03320312 53.21289062 C-16.06832771 51.3981205 -16.12212778 49.58372837 -16.1796875 47.76953125 C-19.8096875 47.76953125 -23.4396875 47.76953125 -27.1796875 47.76953125 Z " fill="#fff" transform="translate(446.1796875,616.23046875)"/>
<path d="M0 0 C6.4204139 6.24130365 9.84472451 13.43360594 10.10742188 22.36914062 C10.13545917 24.61709194 10.15374685 26.86517876 10.1640625 29.11328125 C10.1786853 30.31456665 10.19330811 31.51585205 10.20837402 32.75354004 C10.25478448 36.59216989 10.28899714 40.43075042 10.3203125 44.26953125 C10.36181542 49.30096212 10.41570693 54.33205137 10.4765625 59.36328125 C10.48447815 61.06405823 10.48447815 61.06405823 10.49255371 62.79919434 C10.59161803 70.92812103 11.53918873 78.74882944 12.8203125 86.76953125 C13.3153125 90.23453125 13.3153125 90.23453125 13.8203125 93.76953125 C4.9103125 93.76953125 -3.9996875 93.76953125 -13.1796875 93.76953125 C-14.1696875 91.45953125 -15.1596875 89.14953125 -16.1796875 86.76953125 C-16.72496094 87.16785156 -17.27023437 87.56617188 -17.83203125 87.9765625 C-28.81559639 95.69322108 -38.94739914 97.0970523 -52.1796875 95.76953125 C-61.50490961 93.83224919 -69.0200423 89.14303453 -74.5546875 81.39453125 C-79.64124952 73.05090635 -79.92282683 65.36256956 -78.1796875 55.76953125 C-75.45842556 47.09322077 -69.71788544 40.73264352 -61.7265625 36.45703125 C-51.50073543 32.08372156 -41.05766615 31.42726304 -30.0546875 31.14453125 C-28.81203125 31.10585938 -27.569375 31.0671875 -26.2890625 31.02734375 C-23.25274431 30.93391857 -20.216419 30.84815006 -17.1796875 30.76953125 C-17.29480903 29.03967883 -17.42224427 27.31064374 -17.5546875 25.58203125 C-17.65910156 24.13763672 -17.65910156 24.13763672 -17.765625 22.6640625 C-18.18764658 19.71389276 -18.84268278 17.42946696 -20.1796875 14.76953125 C-22.57498419 13.44471579 -22.57498419 13.44471579 -25.1796875 12.76953125 C-26.1696875 12.43953125 -27.1596875 12.10953125 -28.1796875 11.76953125 C-30.3013343 11.62398292 -32.42825456 11.54872713 -34.5546875 11.51953125 C-35.67617188 11.49375 -36.79765625 11.46796875 -37.953125 11.44140625 C-41.53403876 11.80556697 -43.32820543 12.61328685 -46.1796875 14.76953125 C-48.53324089 17.88738238 -48.53324089 17.88738238 -49.1796875 22.76953125 C-58.0896875 22.76953125 -66.9996875 22.76953125 -76.1796875 22.76953125 C-76.1796875 13.9826425 -73.98749215 7.88238 -68 1.3984375 C-50.3272086 -14.41605609 -18.41720362 -14.72630654 0 0 Z M-48.1171875 53.14453125 C-51.18714531 57.05175028 -52.42447072 59.80644167 -52.1171875 64.76953125 C-51.44773213 69.036301 -49.58706644 71.09230494 -46.1796875 73.76953125 C-38.49027627 76.33266833 -30.33852672 75.28615403 -23.1796875 71.76953125 C-19.20296783 69.17601842 -17.56167567 67.27950156 -16.1796875 62.76953125 C-16.04258532 60.12345916 -15.98905778 57.59484112 -16.0546875 54.95703125 C-16.06371094 54.26416016 -16.07273437 53.57128906 -16.08203125 52.85742188 C-16.10542593 51.1613073 -16.14129109 49.46537254 -16.1796875 47.76953125 C-19.32533796 47.68108109 -22.47066125 47.6286629 -25.6171875 47.58203125 C-26.93493164 47.54432617 -26.93493164 47.54432617 -28.27929688 47.50585938 C-35.71973245 47.42349293 -42.21551298 48.37296462 -48.1171875 53.14453125 Z " fill="#fff" transform="translate(676.1796875,616.23046875)"/>
<path d="M0 0 C8.72748977 6.25443508 12.42080831 15.15826319 14.13671875 25.53125 C14.2230664 27.95293952 14.25442933 30.37682401 14.25024414 32.80004883 C14.25039017 33.51278961 14.25053619 34.2255304 14.25068665 34.95986938 C14.24999307 37.3027049 14.24222675 39.64545972 14.234375 41.98828125 C14.23250885 43.61781267 14.23108588 45.24734465 14.23008728 46.87687683 C14.22627763 51.15613364 14.21646063 55.43535626 14.2053833 59.71459961 C14.19513577 64.08511899 14.19058251 68.45564393 14.18554688 72.82617188 C14.17483693 81.39454865 14.15725274 89.96289113 14.13671875 98.53125 C5.22671875 98.53125 -3.68328125 98.53125 -12.86328125 98.53125 C-12.87786377 96.44216309 -12.89244629 94.35307617 -12.9074707 92.20068359 C-12.957876 85.28748216 -13.02448148 78.37450456 -13.09899616 71.46152306 C-13.14366605 67.27140614 -13.18292948 63.0813857 -13.2097168 58.89111328 C-13.23578374 54.8449593 -13.27620973 50.79917721 -13.32646751 46.75325394 C-13.34311339 45.2119981 -13.35464186 43.67067798 -13.36089516 42.12934494 C-13.37056145 39.96523075 -13.39864861 37.80206307 -13.4309082 35.63818359 C-13.44756279 33.79285538 -13.44756279 33.79285538 -13.46455383 31.9102478 C-13.98024636 27.54003437 -15.60240988 24.38937623 -18.05078125 20.78125 C-22.82638203 17.48773222 -29.24909134 17.0387772 -34.86328125 17.53125 C-40.96215214 18.87953234 -44.77098586 20.6219767 -48.86328125 25.53125 C-49.62047953 28.96978985 -49.62047953 28.96978985 -49.52270508 32.80004883 C-49.53843063 33.86916 -49.53843063 33.86916 -49.55447388 34.95986938 C-49.5831522 37.30312012 -49.57694164 39.64488698 -49.5703125 41.98828125 C-49.58343207 43.61783188 -49.5987371 45.24736626 -49.61613464 46.87687683 C-49.65596794 51.1562051 -49.66617395 55.43510781 -49.67016602 59.71459961 C-49.67950069 64.08525488 -49.71691627 68.45566044 -49.75195312 72.82617188 C-49.81651221 81.39457843 -49.84716945 89.96261523 -49.86328125 98.53125 C-58.77328125 98.53125 -67.68328125 98.53125 -76.86328125 98.53125 C-76.86328125 64.87125 -76.86328125 31.21125 -76.86328125 -3.46875 C-68.94328125 -3.46875 -61.02328125 -3.46875 -52.86328125 -3.46875 C-51.71513128 -1.17245006 -51.55558316 0.60823086 -51.30078125 3.15625 C-51.17509766 4.38214844 -51.17509766 4.38214844 -51.046875 5.6328125 C-50.98628906 6.25929688 -50.92570313 6.88578125 -50.86328125 7.53125 C-50.35539063 7.14453125 -49.8475 6.7578125 -49.32421875 6.359375 C-47.88729272 5.27226242 -46.44418591 4.19328742 -44.99609375 3.12109375 C-43.34624959 1.89126486 -41.72370325 0.6247675 -40.11328125 -0.65625 C-27.60419696 -7.63247008 -12.21185746 -7.3313769 0 0 Z " fill="#fff" transform="translate(791.86328125,611.46875)"/>
<path d="M0 0 C7.41475128 6.86609104 8.82285696 13.08794464 9.84765625 23.3359375 C0.93765625 23.3359375 -7.97234375 23.3359375 -17.15234375 23.3359375 C-18.14234375 20.6959375 -19.13234375 18.0559375 -20.15234375 15.3359375 C-26.89839584 9.7381496 -33.68424721 9.73959267 -42.15234375 10.3359375 C-46.25963064 11.16523072 -49.27987474 12.41059158 -52.21484375 15.5234375 C-53.53547067 19.48531825 -52.91470274 22.24692112 -52.15234375 26.3359375 C-48.14424744 28.06462026 -44.13931466 29.17313693 -39.90234375 30.2109375 C-39.20705566 30.38455811 -38.51176758 30.55817871 -37.79541016 30.73706055 C-34.14793952 31.64015436 -30.49765922 32.48419933 -26.81640625 33.23828125 C-14.39370466 35.83257471 -1.04246337 39.59660802 6.84765625 50.3359375 C10.91556994 56.76586559 10.61986025 63.91419908 9.84765625 71.3359375 C8.94923872 74.39345522 7.68792952 76.7486226 5.84765625 79.3359375 C4.79578125 80.8828125 4.79578125 80.8828125 3.72265625 82.4609375 C-3.20657901 90.261641 -14.06491961 94.03914691 -24.15234375 95.3359375 C-27.88218187 95.52750578 -31.60558816 95.56662655 -35.33984375 95.5859375 C-36.80647461 95.616875 -36.80647461 95.616875 -38.30273438 95.6484375 C-52.28744451 95.72238177 -64.95256707 91.15860253 -75.171875 81.5 C-81.51222052 74.5718907 -82.18138238 70.04555122 -83.15234375 60.3359375 C-74.90234375 60.3359375 -66.65234375 60.3359375 -58.15234375 60.3359375 C-55.67734375 65.2859375 -55.67734375 65.2859375 -53.15234375 70.3359375 C-45.18030788 75.44302298 -36.68864965 76.59149909 -27.38671875 74.8046875 C-22.61301102 73.5205322 -19.77854727 72.75160462 -17.15234375 68.3359375 C-16.65223851 65.29362927 -16.65223851 65.29362927 -17.15234375 62.3359375 C-22.51002579 55.6220922 -33.67852165 54.69662396 -41.58984375 52.8984375 C-55.4482459 49.71532625 -68.73018425 45.60822706 -77.15234375 33.3359375 C-80.47512537 26.74209071 -80.8091119 20.49110495 -79.15234375 13.3359375 C-76.14391402 5.02246427 -69.99820708 -1.05932832 -62.2890625 -5.203125 C-42.8464475 -13.82747562 -17.31316649 -13.38549714 0 0 Z " fill="#fff" transform="translate(1026.15234375,616.6640625)"/>
<path d="M0 0 C4.49625 -0.061875 8.9925 -0.12375 13.625 -0.1875 C15.03217285 -0.21481201 16.4393457 -0.24212402 17.88916016 -0.27026367 C19.01112793 -0.27775635 20.1330957 -0.28524902 21.2890625 -0.29296875 C23.00150146 -0.31653442 23.00150146 -0.31653442 24.74853516 -0.34057617 C31.5479779 0.37163457 35.36521513 3.90653698 39.51953125 8.96875 C43.6657226 14.6574558 43.77342338 21.19387428 43 28 C41.2558907 33.86654947 38.09018619 37.57391314 33 41 C25.96189151 44.37310269 19.71239916 44.35842726 12 44.1875 C6.06 44.0946875 6.06 44.0946875 0 44 C0 29.48 0 14.96 0 0 Z " fill="#BFE7EF" transform="translate(282,595)"/>
<path d="M0 0 C1.15664737 5.48269069 1.11416255 10.80339274 1.0625 16.375 C1.05798828 17.30183594 1.05347656 18.22867188 1.04882812 19.18359375 C1.03711574 21.45579709 1.02071372 23.72786388 1 26 C-5.64722794 28.4250788 -11.61093398 29.19244915 -18.375 26.8125 C-22.10547644 24.23669484 -24.54326338 22.31911954 -25.453125 17.69921875 C-25.76798332 12.98349982 -25.38807783 9.79713068 -22.375 6.0625 C-15.54909589 -0.6215262 -9.17249673 -0.36744423 0 0 Z " fill="#BCE5ED" transform="translate(419,664)"/>
<path d="M0 0 C4.29 0 8.58 0 13 0 C8.44642857 12.58928571 8.44642857 12.58928571 4.75 17.5625 C-0.04681783 24.92992021 1.11212001 34.59099923 1 43 C8.92 43 16.84 43 25 43 C25 43.33 25 43.66 25 44 C16.75 44 8.5 44 0 44 C0 29.48 0 14.96 0 0 Z " fill="#63B3D8" transform="translate(282,595)"/>
</svg>
